HIERARCHY
ROOT Hips
{
 OFFSET 0.000000 0.000000 0.000000
 CHANNELS 6 Xposition Yposition Zposition Yrotation Xrotation Zrotation
 JOINT Chest
 {
  OFFSET 0.000000 9.303000 0.001900
  CHANNELS 3 Yrotation Xrotation Zrotation
  JOINT Chest2
  {
   OFFSET 0.000000 9.301100 -0.003900
   CHANNELS 3 Yrotation Xrotation Zrotation
   JOINT Chest3
   {
    OFFSET 0.000000 9.262800 0.000000
    CHANNELS 3 Yrotation Xrotation Zrotation
    JOINT Chest4
    {
     OFFSET 0.000000 9.253300 0.000000
     CHANNELS 3 Yrotation Xrotation Zrotation
     JOINT Neck
     {
      OFFSET 0.000000 14.010300 0.000000
      CHANNELS 3 Yrotation Xrotation Zrotation
      JOINT Head
      {
       OFFSET 0.000000 8.657600 -0.008300
       CHANNELS 3 Yrotation Xrotation Zrotation
       End Site
       {
        OFFSET 0.000000 16.540200 -0.004400
       }
      }
     }
     JOINT RightCollar
     {
      OFFSET -2.834100 9.267700 0.000000
      CHANNELS 3 Yrotation Xrotation Zrotation
      JOINT RightShoulder
      {
       OFFSET -13.135200 0.000000 0.000000
       CHANNELS 3 Yrotation Xrotation Zrotation
       JOINT RightElbow
       {
        OFFSET 0.000000 -28.893500 0.000000
        CHANNELS 3 Yrotation Xrotation Zrotation
        JOINT RightWrist
        {
         OFFSET 0.000000 -23.344000 0.000000
         CHANNELS 3 Yrotation Xrotation Zrotation
         End Site
         {
          OFFSET 0.000000 -17.223000 0.000000
         }
        }
       }
      }
     }
     JOINT LeftCollar
     {
      OFFSET 2.834100 9.267700 0.000000
      CHANNELS 3 Yrotation Xrotation Zrotation
      JOINT LeftShoulder
      {
       OFFSET 13.135200 0.000000 0.000000
       CHANNELS 3 Yrotation Xrotation Zrotation
       JOINT LeftElbow
       {
        OFFSET 0.000000 -28.893500 0.000000
        CHANNELS 3 Yrotation Xrotation Zrotation
        JOINT LeftWrist
        {
         OFFSET 0.000000 -23.344000 0.000000
         CHANNELS 3 Yrotation Xrotation Zrotation
         End Site
         {
          OFFSET 0.000000 -17.223000 0.000000
         }
        }
       }
      }
     }
    }
   }
  }
 }
 JOINT RightHip
 {
  OFFSET -7.547200 -0.009500 -0.001000
  CHANNELS 3 Yrotation Xrotation Zrotation
  JOINT RightKnee
  {
   OFFSET 0.000000 -39.762800 0.000900
   CHANNELS 3 Yrotation Xrotation Zrotation
   JOINT RightAnkle
   {
    OFFSET 0.000000 -38.588200 0.001600
    CHANNELS 3 Yrotation Xrotation Zrotation
    JOINT RightToe
    {
     OFFSET 0.000000 -4.693300 10.419700
     CHANNELS 3 Yrotation Xrotation Zrotation
     End Site
     {
      OFFSET 0.000000 -1.379900 5.669300
     }
    }
   }
  }
 }
 JOINT LeftHip
 {
  OFFSET 7.547200 -0.009500 -0.001000
  CHANNELS 3 Yrotation Xrotation Zrotation
  JOINT LeftKnee
  {
   OFFSET 0.000000 -39.762800 0.000900
   CHANNELS 3 Yrotation Xrotation Zrotation
   JOINT LeftAnkle
   {
    OFFSET 0.000000 -38.588200 0.001600
    CHANNELS 3 Yrotation Xrotation Zrotation
    JOINT LeftToe
    {
     OFFSET 0.000000 -4.693300 10.419700
     CHANNELS 3 Yrotation Xrotation Zrotation
     End Site
     {
      OFFSET 0.000000 -1.379900 5.669300
     }
    }
   }
  }
 }
}
MOTION
Frames: 13
Frame Time: 0.008333
-6.087825 45.783162 28.922106 150.765514 -20.870527 0.293097 0.597409 8.891678 0.871696 0.103780 0.476129 0.060727 0.076252 0.850563 0.112722 0.832130 8.393139 1.170106 9.643979 17.265193 0.693713 10.457859 -7.133961 -1.494978 2.040693 -2.328213 -6.803696 1.415169 -11.954168 -6.991008 85.664734 -85.084582 -60.049929 -7.729498 -9.748505 -24.450365 -9.399044 -6.514523 -1.143847 -2.429802 -10.949369 17.575729 -64.202248 -80.939379 34.128592 3.299432 -7.181541 8.931312 -7.173263 -67.531358 18.274463 -118.201032 84.728458 -117.301536 -12.388413 -18.472556 3.773544 -0.026476 -0.137125 -0.055254 -7.377439 -64.026748 34.297774 82.113341 77.529619 81.696473 -11.181203 -6.901389 -1.682158 0.260428 0.570682 0.177491
-6.085755 45.777710 28.938635 150.788742 -20.908233 0.287678 0.635981 8.913412 0.874139 0.101775 0.484975 0.062980 0.081232 0.856528 0.112723 0.878711 8.418956 1.169218 9.855221 17.225996 0.689077 10.708712 -7.159722 -1.550901 2.070100 -2.329145 -6.825628 1.322525 -11.803683 -6.999898 85.616028 -85.095899 -60.092785 -7.728318 -9.714536 -24.426413 -9.318291 -6.503963 -1.095360 -2.240931 -10.921678 17.432112 -64.851657 -81.031918 34.879600 3.338510 -7.222891 8.844636 -7.006274 -67.533134 18.170300 -118.155125 84.684154 -117.214401 -12.421231 -18.531949 3.835951 -0.014476 -0.124893 -0.065347 -7.468553 -63.989731 34.353001 82.083730 77.546032 81.641654 -11.153308 -6.864683 -1.699043 0.254392 0.547331 0.173658
-6.086220 45.772198 28.951377 150.788675 -20.947704 0.305892 0.692751 8.942933 0.863315 0.081003 0.491589 0.064479 0.096552 0.860878 0.113298 0.876000 8.428993 1.168809 10.072967 17.203058 0.675243 10.917516 -7.183260 -1.603935 2.085945 -2.329268 -6.837445 1.295202 -11.654277 -7.011667 85.447971 -85.102048 -60.009407 -7.721703 -9.672717 -24.387637 -9.152295 -6.447838 -1.050210 -2.027335 -10.899895 17.248570 -65.581315 -81.131358 35.723750 3.383628 -7.273870 8.784349 -6.721585 -67.546290 17.986544 -118.494106 84.695013 -117.533631 -12.438996 -18.582805 3.954556 -0.027675 -0.117678 -0.099799 -7.507092 -63.953444 34.372077 82.128835 77.553038 81.661874 -11.141386 -6.837617 -1.712777 0.242088 0.519310 0.167969
-6.086554 45.765572 28.965862 150.768975 -20.967522 0.312003 0.754738 8.957136 0.870990 0.049366 0.496026 0.064716 0.131067 0.864788 0.114419 0.876840 8.436055 1.167616 10.252848 17.182384 0.659540 11.088754 -7.205202 -1.655778 2.103089 -2.328022 -6.849538 1.264146 -11.515299 -7.007831 85.193567 -85.100442 -59.835604 -7.712927 -9.626377 -24.343257 -8.958773 -6.360422 -1.000337 -1.791319 -10.879108 17.035118 -66.370594 -81.239439 36.644326 3.437153 -7.335985 8.756643 -6.387346 -67.589163 17.781565 -118.984484 84.728164 -117.983221 -12.394283 -18.625423 4.086050 -0.016688 -0.114541 -0.138772 -7.561609 -63.937773 34.429601 82.173853 77.560465 81.687655 -11.115041 -6.817155 -1.730133 0.231250 0.497790 0.164679
-6.089086 45.758206 28.980865 150.765992 -20.969840 0.305376 0.799515 8.954443 0.887128 0.051898 0.498486 0.065027 0.127433 0.873138 0.113165 0.926313 8.448665 1.173489 10.353665 17.156162 0.639673 11.228203 -7.225530 -1.706109 2.207348 -2.311294 -6.887294 1.094385 -11.398070 -6.968226 84.893390 -85.087852 -59.615364 -7.704770 -9.581693 -24.300753 -8.794320 -6.263056 -0.949823 -1.525453 -10.850334 16.803006 -67.166277 -81.354803 37.585078 3.491457 -7.409344 8.767020 -6.004271 -67.660470 17.518612 -119.502723 84.753439 -118.417253 -12.328322 -18.669934 4.213676 0.019414 -0.113407 -0.170216 -7.632961 -63.938711 34.488917 82.152094 77.585805 81.654348 -11.076030 -6.807878 -1.758009 0.220317 0.493218 0.170064
-6.098104 45.750180 28.994943 150.784474 -20.951966 0.307511 0.814004 8.937130 0.882603 0.054048 0.500489 0.065374 0.123960 0.879684 0.112673 0.970384 8.458734 1.178835 10.435009 17.135470 0.619522 11.339982 -7.242524 -1.752259 2.239257 -2.305192 -6.901157 1.008066 -11.293298 -6.932901 84.551115 -85.063250 -59.351768 -7.694999 -9.542504 -24.262368 -8.609474 -6.154207 -0.906505 -1.228157 -10.805863 16.561345 -67.939559 -81.474804 38.509740 3.538577 -7.492660 8.821119 -5.539200 -67.763477 17.160255 -120.117060 84.781091 -118.917182 -12.295262 -18.725924 4.348048 0.032617 -0.087998 -0.215338 -7.672520 -63.976410 34.481638 82.089150 77.641508 81.587275 -10.964259 -6.767690 -1.751769 0.172878 0.466907 0.146439
-6.108674 45.744848 29.002008 150.765987 -20.967580 0.326802 0.856133 8.958119 0.873979 0.071288 0.509506 0.061161 0.101843 0.874888 0.114792 1.016820 8.473200 1.187116 10.492968 17.115663 0.598458 11.427221 -7.252775 -1.791234 2.231255 -2.305350 -6.908047 0.961820 -11.205849 -6.890697 84.113572 -85.031817 -58.987587 -7.678250 -9.510709 -24.235032 -8.407533 -6.037045 -0.870142 -0.900498 -10.746657 16.309301 -68.678697 -81.599842 39.400600 3.572116 -7.577527 8.915689 -4.977650 -67.840182 16.740412 -120.862830 84.815529 -119.520373 -12.290826 -18.791337 4.478410 0.042901 -0.079677 -0.239892 -7.612090 -63.982491 34.418206 82.105670 77.641571 81.617515 -10.937152 -6.777832 -1.764756 0.138594 0.449816 0.126460
-6.121317 45.740538 29.008199 150.740203 -20.983328 0.332907 0.897609 8.983732 0.871475 0.062545 0.504419 0.067400 0.103661 0.877323 0.114463 1.107130 8.497203 1.197435 10.490116 17.090192 0.581884 11.491754 -7.253476 -1.823476 2.164231 -2.317283 -6.908181 0.934326 -11.150601 -6.853887 83.338657 -85.010598 -58.275199 -7.659183 -9.487565 -24.226390 -8.228330 -5.912883 -0.830508 -0.536437 -10.673330 16.041976 -69.412470 -81.726927 40.278850 3.591110 -7.655974 9.041292 -4.418710 -67.920986 16.319902 -121.845328 84.868780 -120.337411 -12.241022 -18.862593 4.594502 0.074678 -0.092112 -0.245724 -7.562095 -63.988827 34.378147 82.120853 77.640939 81.650255 -10.911659 -6.797054 -1.781092 0.126315 0.468675 0.142927
-6.138810 45.737329 29.013577 150.714591 -20.994221 0.334392 0.921325 8.996557 0.877556 0.065602 0.504117 0.068579 0.099914 0.878286 0.112219 1.137380 8.499993 1.204333 10.526733 17.094277 0.564150 11.519325 -7.252799 -1.838800 2.144724 -2.315625 -6.910427 0.907893 -11.062398 -6.799776 82.912920 -84.989044 -57.897729 -7.643870 -9.469423 -24.234696 -7.969331 -5.747978 -0.800914 -0.131591 -10.583003 15.758440 -70.183378 -81.852643 41.179102 3.598682 -7.726091 9.188297 -3.850329 -68.009800 15.873342 -123.097078 84.945014 -121.398538 -12.158039 -18.953811 4.694591 0.096779 -0.076830 -0.269264 -7.523314 -63.995761 34.352869 82.141093 77.657799 81.675776 -10.875077 -6.835423 -1.796814 0.104119 0.484920 0.152440
-6.159594 45.736695 29.016685 150.686710 -21.018599 0.325631 0.945117 9.022004 0.893945 0.062878 0.505687 0.066732 0.096552 0.871244 0.112563 1.157413 8.505338 1.209319 10.555201 17.103512 0.546806 11.536649 -7.234558 -1.859840 2.146541 -2.282911 -6.915475 0.848614 -10.975881 -6.717924 82.876642 -84.968921 -57.893354 -7.630582 -9.451372 -24.251105 -7.681070 -5.562623 -0.768106 0.310773 -10.476842 15.462951 -70.975835 -81.980839 42.079612 3.595396 -7.791768 9.349279 -3.302664 -68.081759 15.434856 -124.623708 85.047502 -122.713631 -12.060098 -19.075930 4.779800 0.109408 -0.045020 -0.297029 -7.520482 -63.976955 34.373205 82.163550 77.679873 81.683378 -10.863063 -6.871471 -1.791749 0.113243 0.496423 0.151243
-6.185224 45.738468 29.019276 150.617606 -21.046429 0.322388 0.997303 9.044468 0.915912 0.041018 0.492099 0.060043 0.122435 0.883573 0.119977 1.196215 8.505711 1.217185 10.543173 17.119851 0.529543 11.546849 -7.201090 -1.885798 2.093370 -2.224986 -6.926709 0.800446 -10.934849 -6.622229 82.653516 -84.964518 -57.680174 -7.621449 -9.432800 -24.266965 -7.397965 -5.355446 -0.730309 0.784067 -10.360393 15.161275 -71.748202 -82.112223 42.932476 3.584357 -7.855747 9.520930 -2.787582 -68.142180 15.049727 -126.377470 85.173495 -124.259535 -11.913177 -19.258265 4.856730 0.109680 0.034961 -0.336252 -7.471255 -63.973098 34.368349 82.248671 77.683253 81.770878 -10.798900 -6.854158 -1.757674 0.068237 0.451772 0.120678
-6.219372 45.742647 29.021064 150.539554 -21.072423 0.333744 1.025514 9.043751 0.911213 0.075251 0.511626 0.070520 0.129619 0.888806 0.122847 1.234703 8.475266 1.218921 10.506441 17.160002 0.521723 11.526131 -7.172143 -1.893601 2.020511 -2.154380 -6.937370 0.735514 -10.880502 -6.498363 82.489089 -84.965110 -57.502542 -7.619740 -9.416278 -24.275464 -7.111143 -5.109191 -0.683415 1.281415 -10.235381 14.859338 -72.492869 -82.244053 43.730522 3.569416 -7.918188 9.702320 -2.334867 -68.195936 14.719072 -128.173473 85.305566 -125.873479 -11.747223 -19.447220 4.928297 0.121196 0.118558 -0.375341 -7.400505 -63.967241 34.343705 82.388316 77.727126 81.888550 -10.684058 -6.874442 -1.694869 0.003013 0.431175 0.080314
-6.255040 45.749227 29.026783 150.465746 -21.095173 0.304363 1.096390 9.060747 0.964344 0.049081 0.487547 0.059203 0.141921 0.898306 0.126652 1.267142 8.468320 1.226612 10.490880 17.189043 0.521509 11.476698 -7.137547 -1.900749 1.963157 -2.090853 -6.951854 0.651926 -10.822985 -6.347872 82.369212 -84.970829 -57.348270 -7.621649 -9.405877 -24.274116 -6.792353 -4.860868 -0.628134 1.795445 -10.100292 14.564391 -73.223588 -82.373962 44.494113 3.549507 -7.978205 9.891159 -2.081412 -68.245597 14.590045 -129.889338 85.429765 -127.432072 -11.559292 -19.631894 4.996511 0.124910 0.198364 -0.418286 -7.430403 -63.955553 34.412555 82.500552 77.719543 81.994338 -10.640977 -6.882906 -1.667000 -0.054343 0.390561 0.039846
